<svg width="48" height="49" viewBox="0 0 48 49" fill="none" xmlns="http://www.w3.org/2000/svg">
<path d="M24 4.5C12.96 4.5 4 13.46 4 24.5C4 35.54 12.96 44.5 24 44.5C35.04 44.5 44 35.54 44 24.5C44 13.46 35.04 4.5 24 4.5ZM33.28 18.1C32.98 21.26 31.68 28.94 31.02 32.48C30.74 33.98 30.18 34.48 29.66 34.54C28.5 34.64 27.62 33.78 26.5 33.04C24.74 31.88 23.74 31.16 22.04 30.04C20.06 28.74 21.34 28.02 22.48 26.86C22.78 26.56 27.9 21.9 28 21.48C28.0139 21.4164 28.012 21.3503 27.9946 21.2876C27.9772 21.2249 27.9447 21.1673 27.9 21.12C27.78 21.02 27.62 21.06 27.48 21.08C27.3 21.12 24.5 22.98 19.04 26.66C18.24 27.2 17.52 27.48 16.88 27.46C16.16 27.44 14.8 27.06 13.78 26.72C12.52 26.32 11.54 26.1 11.62 25.4C11.66 25.04 12.16 24.68 13.1 24.3C18.94 21.76 22.82 20.08 24.76 19.28C30.32 16.96 31.46 16.56 32.22 16.56C32.38 16.56 32.76 16.6 33 16.8C33.2 16.96 33.26 17.18 33.28 17.34C33.26 17.46 33.3 17.82 33.28 18.1Z" fill="white"/>
</svg>
