<svg width="48" height="49" viewBox="0 0 48 49" fill="none" xmlns="http://www.w3.org/2000/svg">
<path d="M43.4568 29.0811C42.8474 32.1499 38.1462 35.5235 32.6397 36.1764C29.7885 36.5029 26.9808 36.8294 23.999 36.6988C19.1019 36.4594 15.2931 35.5235 15.2931 35.5235V36.8729C15.9895 41.7047 20.1249 41.9876 24.0643 42.14C28.0255 42.2488 31.5514 41.1388 31.5514 41.1388L31.7255 44.73C31.7255 44.73 28.9396 46.21 23.999 46.493C21.2784 46.6453 17.8831 46.4277 13.9436 45.4047C5.41181 43.1194 3.9318 33.9999 3.71415 24.7281L3.69238 17.2627C3.69238 7.81679 9.85184 5.05265 9.85184 5.05265C13.0077 3.61617 18.3619 2.96323 23.9337 2.96323H24.0643C29.6361 2.96323 34.9903 3.61617 38.1462 5.05265C38.1462 5.05265 44.3056 7.81679 44.3056 17.2627C44.3056 17.2627 44.3927 24.2493 43.4568 29.0811ZM37.0579 18.0027C37.0579 15.6521 36.405 13.8457 35.2079 12.4309C33.9891 11.0598 32.3785 10.3415 30.3543 10.3415C28.0473 10.3415 26.2843 11.2339 25.0872 13.0186L23.999 14.9339L22.9108 13.0186C21.6919 11.2339 19.9507 10.3415 17.6219 10.3415C15.6195 10.3415 14.0089 11.0598 12.7683 12.4309C11.5713 13.8457 10.9401 15.6521 10.9401 18.0027V29.4511H15.5107V18.3292C15.5107 16.0221 16.4901 14.8033 18.4707 14.8033C20.6472 14.8033 21.7355 16.218 21.7355 19.0039V25.0763H26.2408V19.0039C26.2408 16.218 27.329 14.8033 29.5273 14.8033C31.4861 14.8033 32.4655 16.0221 32.4655 18.3292V29.4511H37.0579V18.0027Z" fill="white"/>
</svg>
