<svg width="48" height="48" viewBox="0 0 48 48" fill="none" xmlns="http://www.w3.org/2000/svg">
<path d="M24.0001 21.9214C22.1602 18.2638 17.1523 11.4451 12.4958 8.08455C8.03417 4.86523 6.33441 5.41978 5.21952 5.93903C3.92795 6.53097 3.69238 8.56018 3.69238 9.75029C3.69238 10.9446 4.33208 19.5308 4.74838 20.966C6.12931 25.7015 11.0316 27.3008 15.5521 26.7878C8.93177 27.791 3.04863 30.2563 10.7595 39.0378C19.244 48.0208 22.3876 37.1124 24.0001 31.5814C25.6125 37.1124 27.4686 47.6282 37.0863 39.0378C44.3078 31.5814 39.0704 27.791 32.4501 26.7878C36.9686 27.3008 41.8729 25.7015 43.2518 20.966C43.6681 19.5329 44.3078 10.9446 44.3078 9.75236C44.3078 8.5581 44.0722 6.53304 42.7806 5.93487C41.6657 5.41978 39.966 4.86107 35.5044 8.08039C30.8478 11.4472 25.8379 18.2659 24.0001 21.9214Z" fill="white"/>
</svg>
