<svg width="48" height="49" viewBox="0 0 48 49" fill="none" xmlns="http://www.w3.org/2000/svg">
<path d="M6.53546 7.2854C3.69238 10.1556 3.69238 14.7451 3.69238 23.9377V25.5623C3.69238 34.7414 3.69238 39.3309 6.53546 42.2146C9.40561 45.0577 13.9952 45.0577 23.1878 45.0577H24.8124C33.9915 45.0577 38.581 45.0577 41.4647 42.2146C44.3078 39.3445 44.3078 34.7549 44.3078 25.5623V23.9377C44.3078 14.7586 44.3078 10.1691 41.4647 7.2854C38.5945 4.44232 34.005 4.44232 24.8124 4.44232H23.1878C14.0087 4.44232 9.41915 4.44232 6.53546 7.2854ZM10.5428 16.8029H15.2001C15.349 24.5469 18.7607 27.8232 21.4684 28.5002V16.8029H25.8413V23.4774C28.5084 23.1931 31.3244 20.1469 32.2721 16.7894H36.6315C36.2757 18.5273 35.5656 20.1733 34.5453 21.6245C33.5251 23.0757 32.2166 24.301 30.7016 25.2239C32.3926 26.0652 33.886 27.2556 35.0832 28.7165C36.2804 30.1774 37.1542 31.8756 37.6468 33.6989H32.8407C31.8118 30.4903 29.2395 27.9992 25.8413 27.6608V33.6989H25.2998C16.0395 33.6989 10.7595 27.3629 10.5428 16.8029Z" fill="white"/>
</svg>
