<svg width="48" height="48" viewBox="0 0 48 48" fill="none" xmlns="http://www.w3.org/2000/svg">
<path d="M23.9757 4.00166C19.9608 4.00166 15.2992 5.81356 15.2992 10.4746V10.7273C17.5375 11.7197 20.1907 13.4917 22.6524 15.666C25.2723 17.9782 27.3823 20.4567 28.7406 22.7922C31.0738 18.6315 32.6338 13.6862 32.6521 10.5361V10.4746C32.6521 5.81523 27.9922 4 23.9773 4M36.497 11.4637C35.8227 11.4548 35.1516 11.5593 34.5121 11.7729L34.2704 11.851C34.0171 14.2796 33.1455 17.3432 31.8322 20.3503C30.4372 23.5502 28.7289 26.318 26.9206 28.3293C31.6088 29.2552 36.8037 29.2054 39.8136 28.2496L39.872 28.2329C44.3169 26.7934 44.6052 21.8115 43.3652 18.0032C42.3186 14.79 39.8986 11.5368 36.4987 11.4654M11.5043 11.5302C8.10268 11.6017 5.68274 14.8515 4.63443 18.0647C3.39446 21.873 3.68445 26.8549 8.12768 28.2961L8.36768 28.3742C10.0043 26.5573 12.5126 24.5892 15.3475 22.9252C18.3608 21.1565 21.3791 19.9198 24.0257 19.3546C20.7774 15.8555 16.5442 12.8501 13.5476 11.8577L13.4876 11.8377C12.8478 11.6252 12.1768 11.5218 11.5026 11.5319M19.2891 22.7656C14.9492 24.7637 10.7743 27.8523 8.901 30.3889L8.866 30.4371C6.11939 34.2072 8.821 38.4078 12.0693 40.76C15.3159 43.1154 20.1557 44.3788 22.9024 40.6087L23.0523 40.4076C21.8257 38.2931 20.7257 35.301 20.0141 32.0994C19.2591 28.6917 19.0108 25.4502 19.2891 22.7656ZM21.0757 28.3144C21.6407 33.0469 23.2957 37.9607 25.1356 40.5206L25.1706 40.5705C27.9172 44.3406 32.7555 43.0756 36.0037 40.7217C39.252 38.3679 41.9536 34.1673 39.207 30.3989L39.0603 30.1928C36.6654 30.7031 33.4738 30.8244 30.2005 30.5086C26.7173 30.1728 23.5507 29.4065 21.0757 28.3144Z" fill="white"/>
</svg>
