<svg width="48" height="48" viewBox="0 0 48 48" fill="none" xmlns="http://www.w3.org/2000/svg">
<path d="M44.3078 11.4013C42.7867 12.0753 41.1733 12.5175 39.5212 12.7132C41.2614 11.6716 42.564 10.0334 43.1868 8.10336C41.5512 9.07492 39.7612 9.75904 37.8946 10.126C36.7509 8.90841 35.2677 8.06252 33.6374 7.69804C32.0071 7.33355 30.3049 7.46728 28.7515 8.08189C27.1982 8.6965 25.8653 9.76362 24.9257 11.1449C23.9861 12.5262 23.4832 14.1579 23.4822 15.8284C23.482 16.4673 23.5535 17.1042 23.6955 17.7272C20.3828 17.5609 17.1421 16.6999 14.1837 15.2C11.2254 13.7002 8.61541 11.5951 6.52328 9.02127C5.45765 10.8558 5.13118 13.0274 5.61033 15.0942C6.08947 17.1609 7.33821 18.9674 9.10235 20.1458C7.77833 20.104 6.4834 19.7468 5.32512 19.104V19.2096C5.32544 21.1337 5.99133 22.9985 7.20984 24.4875C8.42835 25.9766 10.1244 26.9984 12.0104 27.3794C11.2953 27.576 10.5567 27.6737 9.81515 27.6698C9.28839 27.6721 8.76265 27.6231 8.24537 27.5236C8.77806 29.1787 9.81433 30.6261 11.2095 31.6637C12.6046 32.7013 14.2889 33.2773 16.0273 33.3113C12.5333 36.0462 8.09798 37.2854 3.69238 36.7575C7.50169 39.2078 11.9366 40.508 16.4659 40.5023C19.5847 40.5233 22.6766 39.9245 25.562 38.7407C28.4475 37.5568 31.069 35.8114 33.2742 33.606C35.4795 31.4005 37.2246 28.7789 38.4082 25.8934C39.5919 23.0078 40.1904 19.9159 40.1691 16.7971C40.1691 16.4356 40.1603 16.0768 40.1427 15.7208C41.7753 14.5384 43.1855 13.0759 44.3078 11.4013Z" fill="white"/>
</svg>
