<svg width="48" height="49" viewBox="0 0 48 49" fill="none" xmlns="http://www.w3.org/2000/svg">
<g clip-path="url(#clip0_39_821)">
<g clip-path="url(#clip1_39_821)">
<path d="M4 24.1666C4 13.1208 12.9543 4.16663 23.9999 4.16663C35.0457 4.16663 43.9999 13.121 44 24.1666C44 35.2123 35.0457 44.1665 23.9999 44.1667C12.9542 44.1667 4 35.2123 4 24.1666ZM23.9999 42.8027C34.2923 42.8027 42.6358 34.459 42.636 24.1666C42.636 13.8741 34.2923 5.53063 23.9999 5.53063C13.7075 5.53063 5.364 13.8743 5.364 24.1666C5.364 34.459 13.7077 42.8025 23.9999 42.8027Z" fill="#FE633D"/>
<path d="M24.0002 43.9666C34.9354 43.9666 43.8002 35.1018 43.8002 24.1666C43.8002 13.2313 34.9354 4.36658 24.0002 4.36658C13.065 4.36658 4.2002 13.2313 4.2002 24.1666C4.2002 35.1018 13.065 43.9666 24.0002 43.9666Z" fill="#FE633D"/>
<g clip-path="url(#clip2_39_821)">
<g clip-path="url(#clip3_39_821)">
<path d="M34.9773 24.1223C34.9773 25.6619 33.7317 26.9067 32.1915 26.9067C30.654 26.9067 29.4077 25.6619 29.4077 24.1223C29.4077 22.5848 31.9445 20.0745 33.4827 20.0745C35.0236 20.0745 34.9773 22.5848 34.9773 24.1223Z" fill="white"/>
<path d="M18.5933 24.1223C18.5933 25.6619 17.3477 26.9067 15.8072 26.9067C14.2693 26.9067 13.0241 25.6619 13.0241 24.1223C13.0241 22.5848 12.9291 20.0745 14.4666 20.0745C16.0072 20.0745 18.5933 22.5848 18.5933 24.1223Z" fill="white"/>
<path d="M30.2883 18.5532C30.2883 20.0924 29.0427 21.3379 27.5032 21.3379C25.965 21.3379 24.7188 20.0924 24.7188 18.5532C24.7188 17.016 25.965 13.4148 27.5032 13.4148C29.0427 13.4145 30.2883 17.0157 30.2883 18.5532Z" fill="white"/>
<path d="M30.8982 29.5056C31.6453 32.5841 28.4942 35.0038 23.8532 34.916C19.2171 34.8279 16.1208 32.3371 16.9345 29.3468C17.7468 26.3603 20.8976 23.9368 23.9736 23.9368C27.0531 23.9371 30.1514 26.4317 30.8982 29.5056Z" fill="white"/>
<path d="M23.2347 18.5532C23.2347 20.0924 21.9888 21.3379 20.4493 21.3379C18.9108 21.3379 17.6655 20.0924 17.6655 18.5532C17.6655 17.016 18.9108 13.4148 20.4493 13.4148C21.9888 13.4145 23.2347 17.0157 23.2347 18.5532Z" fill="white"/>
</g>
</g>
</g>
</g>
<g clip-path="url(#clip4_39_821)">
<g clip-path="url(#clip5_39_821)">
<path d="M4 24.1666C4 13.1208 12.9543 4.16663 23.9999 4.16663C35.0457 4.16663 43.9999 13.121 44 24.1666C44 35.2123 35.0457 44.1665 23.9999 44.1667C12.9542 44.1667 4 35.2123 4 24.1666ZM23.9999 42.8027C34.2923 42.8027 42.6358 34.459 42.636 24.1666C42.636 13.8741 34.2923 5.53063 23.9999 5.53063C13.7075 5.53063 5.364 13.8743 5.364 24.1666C5.364 34.459 13.7077 42.8025 23.9999 42.8027Z" fill="#FE633D"/>
<path d="M24.0002 43.9666C34.9354 43.9666 43.8002 35.1018 43.8002 24.1666C43.8002 13.2313 34.9354 4.36658 24.0002 4.36658C13.065 4.36658 4.2002 13.2313 4.2002 24.1666C4.2002 35.1018 13.065 43.9666 24.0002 43.9666Z" fill="#FE633D"/>
<g clip-path="url(#clip6_39_821)">
<g clip-path="url(#clip7_39_821)">
<path d="M34.9773 24.1223C34.9773 25.6619 33.7317 26.9067 32.1915 26.9067C30.654 26.9067 29.4077 25.6619 29.4077 24.1223C29.4077 22.5848 31.9445 20.0745 33.4827 20.0745C35.0236 20.0745 34.9773 22.5848 34.9773 24.1223Z" fill="white"/>
<path d="M18.5933 24.1223C18.5933 25.6619 17.3477 26.9067 15.8072 26.9067C14.2693 26.9067 13.0241 25.6619 13.0241 24.1223C13.0241 22.5848 12.9291 20.0745 14.4666 20.0745C16.0072 20.0745 18.5933 22.5848 18.5933 24.1223Z" fill="white"/>
<path d="M30.2883 18.5532C30.2883 20.0924 29.0427 21.3379 27.5032 21.3379C25.965 21.3379 24.7188 20.0924 24.7188 18.5532C24.7188 17.016 25.965 13.4148 27.5032 13.4148C29.0427 13.4145 30.2883 17.0157 30.2883 18.5532Z" fill="white"/>
<path d="M30.8982 29.5056C31.6453 32.5841 28.4942 35.0038 23.8532 34.916C19.2171 34.8279 16.1208 32.3371 16.9345 29.3468C17.7468 26.3603 20.8976 23.9368 23.9736 23.9368C27.0531 23.9371 30.1514 26.4317 30.8982 29.5056Z" fill="white"/>
<path d="M23.2347 18.5532C23.2347 20.0924 21.9888 21.3379 20.4493 21.3379C18.9108 21.3379 17.6655 20.0924 17.6655 18.5532C17.6655 17.016 18.9108 13.4148 20.4493 13.4148C21.9888 13.4145 23.2347 17.0157 23.2347 18.5532Z" fill="white"/>
</g>
</g>
</g>
</g>
<defs>
<clipPath id="clip0_39_821">
<rect width="40" height="40" fill="white" transform="translate(4 4.16663)"/>
</clipPath>
<clipPath id="clip1_39_821">
<rect width="40" height="40" fill="white" transform="translate(4 4.16663)"/>
</clipPath>
<clipPath id="clip2_39_821">
<rect width="21.9543" height="21.5036" fill="white" transform="translate(13.0229 13.4148)"/>
</clipPath>
<clipPath id="clip3_39_821">
<rect width="21.9543" height="21.5036" fill="white" transform="translate(13.0229 13.4148)"/>
</clipPath>
<clipPath id="clip4_39_821">
<rect width="40" height="40" fill="white" transform="translate(4 4.16663)"/>
</clipPath>
<clipPath id="clip5_39_821">
<rect width="40" height="40" fill="white" transform="translate(4 4.16663)"/>
</clipPath>
<clipPath id="clip6_39_821">
<rect width="21.9543" height="21.5036" fill="white" transform="translate(13.0229 13.4148)"/>
</clipPath>
<clipPath id="clip7_39_821">
<rect width="21.9543" height="21.5036" fill="white" transform="translate(13.0229 13.4148)"/>
</clipPath>
</defs>
</svg>
