<svg width="450" height="450" viewBox="0 0 450 450" fill="none" xmlns="http://www.w3.org/2000/svg">
<g clip-path="url(#clip0_1_477)">
<g clip-path="url(#clip1_1_477)">
<path d="M0 224.999C0 100.734 100.736 0 224.999 0C349.264 0 449.998 100.736 450 224.999C450 349.264 349.264 449.998 224.999 450C100.734 450 0 349.264 0 224.999ZM224.999 434.655C340.789 434.655 434.653 340.789 434.655 224.999C434.655 109.209 340.789 15.345 224.999 15.345C109.209 15.345 15.345 109.211 15.345 224.999C15.345 340.789 109.211 434.653 224.999 434.655Z" fill="#FE633D"/>
<path d="M225 447.75C348.021 447.75 447.75 348.021 447.75 225C447.75 101.979 348.021 2.25 225 2.25C101.979 2.25 2.25 101.979 2.25 225C2.25 348.021 101.979 447.75 225 447.75Z" fill="#FE633D"/>
<g clip-path="url(#clip2_1_477)">
<g clip-path="url(#clip3_1_477)">
<path d="M348.491 224.503C348.491 241.823 334.479 255.828 317.151 255.828C299.854 255.828 285.834 241.823 285.834 224.503C285.834 207.206 314.373 178.964 331.677 178.964C349.012 178.964 348.491 207.206 348.491 224.503Z" fill="white"/>
<path d="M164.174 224.503C164.174 241.823 150.161 255.828 132.829 255.828C115.529 255.828 101.52 241.823 101.52 224.503C101.52 207.206 100.451 178.964 117.748 178.964C135.079 178.964 164.174 207.206 164.174 224.503Z" fill="white"/>
<path d="M295.744 161.849C295.744 179.165 281.732 193.178 264.412 193.178C247.107 193.178 233.087 179.165 233.087 161.849C233.087 144.556 247.107 104.042 264.412 104.042C281.732 104.039 295.744 144.552 295.744 161.849Z" fill="white"/>
<path d="M302.602 285.065C311.007 319.697 275.557 346.919 223.346 345.931C171.19 344.94 136.357 316.918 145.511 283.278C154.649 249.68 190.096 222.415 224.701 222.415C259.345 222.419 294.201 250.483 302.602 285.065Z" fill="white"/>
<path d="M216.388 161.849C216.388 179.165 202.372 193.178 185.052 193.178C167.743 193.178 153.734 179.165 153.734 161.849C153.734 144.556 167.743 104.042 185.052 104.042C202.372 104.039 216.388 144.552 216.388 161.849Z" fill="white"/>
</g>
</g>
</g>
</g>
<g clip-path="url(#clip4_1_477)">
<g clip-path="url(#clip5_1_477)">
<path d="M0 224.999C0 100.734 100.736 0 224.999 0C349.264 0 449.998 100.736 450 224.999C450 349.264 349.264 449.998 224.999 450C100.734 450 0 349.264 0 224.999ZM224.999 434.655C340.789 434.655 434.653 340.789 434.655 224.999C434.655 109.209 340.789 15.345 224.999 15.345C109.209 15.345 15.345 109.211 15.345 224.999C15.345 340.789 109.211 434.653 224.999 434.655Z" fill="#FE633D"/>
<path d="M225 447.75C348.021 447.75 447.75 348.021 447.75 225C447.75 101.979 348.021 2.25 225 2.25C101.979 2.25 2.25 101.979 2.25 225C2.25 348.021 101.979 447.75 225 447.75Z" fill="#FE633D"/>
<g clip-path="url(#clip6_1_477)">
<g clip-path="url(#clip7_1_477)">
<path d="M348.491 224.503C348.491 241.823 334.479 255.828 317.151 255.828C299.854 255.828 285.834 241.823 285.834 224.503C285.834 207.206 314.373 178.964 331.677 178.964C349.012 178.964 348.491 207.206 348.491 224.503Z" fill="white"/>
<path d="M164.174 224.503C164.174 241.823 150.161 255.828 132.829 255.828C115.529 255.828 101.52 241.823 101.52 224.503C101.52 207.206 100.451 178.964 117.748 178.964C135.079 178.964 164.174 207.206 164.174 224.503Z" fill="white"/>
<path d="M295.744 161.849C295.744 179.165 281.732 193.178 264.412 193.178C247.107 193.178 233.087 179.165 233.087 161.849C233.087 144.556 247.107 104.042 264.412 104.042C281.732 104.039 295.744 144.552 295.744 161.849Z" fill="white"/>
<path d="M302.602 285.065C311.007 319.697 275.557 346.919 223.346 345.931C171.19 344.94 136.357 316.918 145.511 283.278C154.649 249.68 190.096 222.415 224.701 222.415C259.345 222.419 294.201 250.483 302.602 285.065Z" fill="white"/>
<path d="M216.388 161.849C216.388 179.165 202.372 193.178 185.052 193.178C167.743 193.178 153.734 179.165 153.734 161.849C153.734 144.556 167.743 104.042 185.052 104.042C202.372 104.039 216.388 144.552 216.388 161.849Z" fill="white"/>
</g>
</g>
</g>
</g>
<defs>
<clipPath id="clip0_1_477">
<rect width="450" height="450" fill="white"/>
</clipPath>
<clipPath id="clip1_1_477">
<rect width="450" height="450" fill="white"/>
</clipPath>
<clipPath id="clip2_1_477">
<rect width="246.986" height="241.915" fill="white" transform="translate(101.507 104.042)"/>
</clipPath>
<clipPath id="clip3_1_477">
<rect width="246.986" height="241.915" fill="white" transform="translate(101.507 104.042)"/>
</clipPath>
<clipPath id="clip4_1_477">
<rect width="450" height="450" fill="white"/>
</clipPath>
<clipPath id="clip5_1_477">
<rect width="450" height="450" fill="white"/>
</clipPath>
<clipPath id="clip6_1_477">
<rect width="246.986" height="241.915" fill="white" transform="translate(101.507 104.042)"/>
</clipPath>
<clipPath id="clip7_1_477">
<rect width="246.986" height="241.915" fill="white" transform="translate(101.507 104.042)"/>
</clipPath>
</defs>
</svg>
