<svg width="30" height="37" viewBox="0 0 30 37" fill="none" xmlns="http://www.w3.org/2000/svg">
<path d="M18.75 0H3.75C2.75544 0 1.80161 0.38982 1.09835 1.0837C0.395088 1.77759 0 2.7187 0 3.7V33.3C0 35.3535 1.66875 37 3.75 37H26.25C28.3313 37 30 35.3535 30 33.3V11.1L18.75 0ZM26.25 33.3H3.75V3.7H16.875V12.95H26.25V33.3ZM10.3875 25.2525L14.3063 29.119L11.9063 31.45L5.625 25.2525L11.9063 19.055L14.3063 21.386L10.3875 25.2525ZM24.375 25.2525L18.0937 31.45L15.7125 29.119L19.6313 25.2525L15.7125 21.386L18.0937 19.055L24.375 25.2525Z" fill="white"/>
</svg>
